<svg xmlns="http://www.w3.org/2000/svg" width="256" height="256" viewBox="0 0 256 256">
  <defs>
    <linearGradient id="g" x1="0" y1="0" x2="1" y2="1">
      <stop offset="0" stop-color="#a78bfa"/>
      <stop offset="1" stop-color="#7c3aed"/>
    </linearGradient>
  </defs>
  <!-- rounded app tile -->
  <rect x="8" y="8" width="240" height="240" rx="56" fill="url(#g)"/>
  <!-- knowledge-graph brain: edges first -->
  <g stroke="#ffffff" stroke-opacity="0.85" stroke-width="7" stroke-linecap="round">
    <line x1="128" y1="128" x2="76"  y2="84"/>
    <line x1="128" y1="128" x2="172" y2="76"/>
    <line x1="128" y1="128" x2="188" y2="140"/>
    <line x1="128" y1="128" x2="150" y2="188"/>
    <line x1="128" y1="128" x2="72"  y2="160"/>
    <line x1="76"  y1="84"  x2="172" y2="76"/>
    <line x1="72"  y1="160" x2="150" y2="188"/>
    <line x1="188" y1="140" x2="150" y2="188"/>
  </g>
  <!-- nodes -->
  <g fill="#ffffff">
    <circle cx="128" cy="128" r="22"/>
    <circle cx="76"  cy="84"  r="13"/>
    <circle cx="172" cy="76"  r="13"/>
    <circle cx="188" cy="140" r="13"/>
    <circle cx="150" cy="188" r="13"/>
    <circle cx="72"  cy="160" r="13"/>
  </g>
</svg>
