<svg xmlns="http://www.w3.org/2000/svg" width="880" height="300" viewBox="0 0 880 300" font-family="-apple-system, 'Segoe UI', Helvetica, Arial, sans-serif">
  <!-- window frame -->
  <rect x="10" y="10" width="860" height="280" rx="12" fill="#f6f8fa" stroke="#d0d7de" stroke-width="1.5"/>
  <circle cx="34" cy="32" r="6" fill="#d0d7de"/>
  <circle cx="54" cy="32" r="6" fill="#d0d7de"/>
  <circle cx="74" cy="32" r="6" fill="#d0d7de"/>
  <text x="440" y="37" text-anchor="middle" font-size="13" font-weight="600" fill="#57606a">Obsidian Settings  (gear icon, or Cmd/Ctrl+,)</text>

  <!-- sidebar -->
  <rect x="10" y="52" width="220" height="238" fill="#eaeef2"/>
  <text x="30" y="84" font-size="12" font-weight="700" fill="#57606a">OPTIONS</text>
  <text x="30" y="110" font-size="13.5" fill="#57606a">Editor</text>
  <text x="30" y="136" font-size="13.5" fill="#57606a">Appearance</text>
  <text x="30" y="162" font-size="13.5" fill="#57606a">Community plugins</text>
  <text x="30" y="196" font-size="12" font-weight="700" fill="#57606a">COMMUNITY PLUGINS</text>
  <rect x="20" y="208" width="200" height="30" rx="6" fill="#8250df"/>
  <text x="30" y="228" font-size="13.5" font-weight="600" fill="#ffffff">Cortex</text>

  <!-- main pane -->
  <text x="260" y="90" font-size="16" font-weight="700" fill="#1f2328">Cortex</text>

  <text x="260" y="126" font-size="13.5" font-weight="600" fill="#1f2328">Execution mode</text>
  <rect x="620" y="108" width="230" height="28" rx="6" fill="#ffffff" stroke="#d0d7de"/>
  <text x="632" y="127" font-size="12.5" fill="#1f2328">Claude Code CLI</text>
  <text x="838" y="127" text-anchor="end" font-size="11" fill="#57606a">▾</text>

  <text x="260" y="170" font-size="13.5" font-weight="600" fill="#1f2328">Provider</text>
  <rect x="620" y="152" width="230" height="28" rx="6" fill="#ffffff" stroke="#d0d7de"/>
  <text x="632" y="171" font-size="12.5" fill="#1f2328">Anthropic</text>
  <text x="838" y="171" text-anchor="end" font-size="11" fill="#57606a">▾</text>

  <text x="260" y="214" font-size="13.5" font-weight="600" fill="#1f2328">Model</text>
  <rect x="620" y="196" width="230" height="28" rx="6" fill="#ffffff" stroke="#d0d7de"/>
  <text x="632" y="215" font-size="12.5" fill="#1f2328">Claude Sonnet 5 — best balance</text>
  <text x="838" y="215" text-anchor="end" font-size="11" fill="#57606a">▾</text>

  <text x="260" y="262" font-size="12.5" fill="#57606a">Everything else has a sensible default — this is the whole setup.</text>
</svg>
